<svg viewBox="0 0 512 512" xmlns="http://www.w3.org/2000/svg"><path d="m437 0h-362c-41.355469 0-75 33.644531-75 75v362c0 41.355469 33.644531 75 75 75h362c41.355469 0 75-33.644531 75-75v-362c0-41.355469-33.644531-75-75-75zm45 437c0 24.8125-20.1875 45-45 45h-362c-24.8125 0-45-20.1875-45-45v-362c0-24.8125 20.1875-45 45-45h362c24.8125 0 45 20.1875 45 45zm0 0"/><path d="m241 211c0-33.085938-26.914062-60-60-60h-90v210h90c33.085938 0 60-26.914062 60-60 0-17.90625-7.894531-33.996094-20.378906-45 12.484375-11.003906 20.378906-27.09375 20.378906-45zm-30 90c0 16.542969-13.457031 30-30 30h-60v-60h60c16.542969 0 30 13.457031 30 30zm-90-60v-60h60c16.542969 0 30 13.457031 30 30s-13.457031 30-30 30zm0 0"/><path d="m346 211c-41.355469 0-75 33.644531-75 75s33.644531 75 75 75c26.691406 0 51.582031-14.363281 64.957031-37.488281l-25.96875-15.023438c-8.03125 13.886719-22.972656 22.511719-38.988281 22.511719-19.558594 0-36.238281-12.539062-42.429688-30h117.429688v-15c0-41.355469-33.644531-75-75-75zm-42.429688 60c6.191407-17.460938 22.871094-30 42.429688-30s36.238281 12.539062 42.429688 30zm0 0"/><path d="m286 151h120v30h-120zm0 0"/></svg>