<svg id="regular" enable-background="new 0 0 24 24" height="512" viewBox="0 0 24 24" width="512" xmlns="http://www.w3.org/2000/svg"><path d="m16.354 23.17c.02-.006.039-.014.059-.021 12.215-4.853 8.836-23.149-4.413-23.149-6.649 0-12 5.42-12 12 0 8.327 8.434 14.269 16.354 11.17zm-11.073-3.111c.852-1.432 3.609-5.472 8.315-6.866.984 2.509 1.674 5.436 1.742 8.755-3.566 1.199-7.327.392-10.057-1.889zm11.532 1.263c-.131-3.189-.782-6.017-1.71-8.467 2.082-.325 4.492-.108 7.225.987-.581 3.261-2.666 6.002-5.515 7.48zm5.672-9.031c-3.01-1.131-5.663-1.272-7.959-.834-.355-.8-.728-1.569-1.123-2.277 3.523-1.407 5.605-3.122 6.537-4.03 1.645 1.904 2.622 4.369 2.545 7.141zm-3.61-8.209c-.848.807-2.845 2.437-6.26 3.77-1.674-2.648-3.464-4.516-4.598-5.562 3.628-1.494 7.812-.856 10.858 1.792zm-12.292-1.059c.856.753 2.735 2.561 4.548 5.357-2.49.802-5.612 1.391-9.409 1.474.604-2.894 2.408-5.346 4.861-6.831zm-5.051 8.337c4.25-.069 7.69-.74 10.409-1.648.376.659.733 1.377 1.076 2.123-4.735 1.508-7.694 5.401-8.827 7.159-1.828-2.04-2.836-4.702-2.658-7.634z"/></svg>